<?xml version="1.0" encoding="UTF-8" standalone="no"?><!DOCTYPE svg PUBLIC "-//W3C//DTD SVG 1.1//EN" "http://www.w3.org/Graphics/SVG/1.1/DTD/svg11.dtd"><svg width="100%" height="100%" viewBox="0 0 31 61" version="1.1" xmlns="http://www.w3.org/2000/svg" xmlns:xlink="http://www.w3.org/1999/xlink" xml:space="preserve" xmlns:serif="http://www.serif.com/" style="fill-rule:evenodd;clip-rule:evenodd;stroke-linecap:round;stroke-miterlimit:10;"><g><path d="M15.131,19.535c0,0 -2.047,-4.268 2.237,-9.948" style="fill:none;stroke:#8b371c;stroke-width:1.91px;"/><path d="M0.849,43.42c-0.158,0.489 -0.296,0.986 -0.409,1.492c-1.838,8.239 2.072,15.09 12.004,15.744c15.82,1.041 21.555,-7.12 16.783,-18.667c-4.772,-11.547 -6.979,-8.773 -7.451,-17.635c-0.212,-3.988 -3.081,-7.541 -7.273,-6.822c-4.824,0.828 -5.494,5.528 -6.16,9.56c-1.003,6.073 -5.649,10.639 -7.494,16.328Z" style="fill:#dad100;fill-rule:nonzero;"/><path d="M14.526,18.149c0.219,-1.067 0.985,-2.036 2.323,-2.734c2.79,-1.456 5.017,-1.122 7.789,0.056c0.001,0 3.561,1.513 5.695,-1.297c-1.326,1.746 -2.613,3.463 -4.13,5.062c-2.464,2.598 -7.036,6.157 -10.319,2.682c-1.144,-1.211 -1.607,-2.553 -1.358,-3.769Z" style="fill:#80b900;fill-rule:nonzero;stroke:#80b900;stroke-width:0.7px;stroke-linejoin:round;"/></g></svg>