<svg baseProfile="tiny" xmlns="http://www.w3.org/2000/svg" viewBox="0 0 150 150" overflow="scroll">
  <g fill="#FFF">
    <path d="M35.8 59.4c-3.6 3-5.9 7.3-6.1 12.1-.2 5 2 9.6 5.6 12.9 3.8-3 6.4-7.4 6.5-12.5.1-2 0-4.5-.9-5.9-.9-1.4-3.7-4.1-5.1-6.6m-.5 3.9c1 1.5 2.9 2.6 3.5 4.1.5 1.5.6 2.9.6 4.4-.1 3.4-1.5 6.6-3.9 9.1-2.2-2.7-3.4-6-3.3-9.4.1-3 1.2-5.8 3.1-8.2m62.6-13.2c-1-1.1-2.1-2.2-2.4-3.7-.3-1.5.1-3.6 0-5.4 3 .5 5.7 2 7.8 4.2 2.3 2.5 3.5 5.8 3.6 9.3-3.6-.4-6.7-1.9-9-4.4m7.1-6.6c-3.2-3.5-7.8-5.5-12.2-5.2h-.3c.5 2.8.2 6.6.4 8.5.2 1.9 1.7 3.5 3.1 5 3.2 3.5 7.7 5.3 12.2 5.3h.8c.7-4.9-.6-9.9-4-13.6m-25.1-9.3c-3.7-2.1-7-5.1-9.5-8.5l-.3-.4.1-.5c.4-1.8.5-3.5.5-5.2 7.9 2.8 14 9.3 16.2 17.3-2.3-.5-4.6-1.4-7-2.7M53.8 46.7c-4.5 4.1-9.4 7.3-14.4 9.4-2-3.6-3.1-7.8-3.1-12.2C36.3 29.6 47.9 18 62.1 18c2.1 0 4.2.3 6.2.8.4 8.6-5.1 19.3-14.5 27.9m35.9-9.4c-3-12.5-14.2-21.8-27.5-21.8-15.6 0-28.3 12.7-28.3 28.3 0 4.8 1.2 9.2 3.3 13.2l.1.2c.1.1.1.2.2.4l.9 1.6c5 7.8 13.8 13 23.8 13 2.5 0 5-.4 7.3-1v-2.5c-2.3.7-4.8 1.1-7.3 1.1-8.9 0-16.8-4.6-21.5-11.5 5.2-2.2 10.3-5.6 14.8-9.7 6-5.5 10.5-11.8 13.1-18.3l.7-1.9 1.3 1.5c2.3 2.6 5.1 4.8 8 6.5 2.9 1.7 6 2.7 8.9 3.2.2 1.4.4 2.9.4 4.4 0 8.9-4.5 16.7-11.3 21.4l.4.3 1.5 1.4C85.7 62 90.4 53.6 90.4 44c0-1.4-.1-2.8-.3-4.2l-.4-2.5z"/>
    <path d="M71.7 70.5v-6.6l1.3 1.2 1.5 1.4.3.3 1.6 1.5 38.3 34.8-18.4 3.9 10.4 20.2-8.6 4.7-10.4-21.3-16 13.4V70.5zm-2.3-4v62.4l17.5-14.7L97.1 135l12.7-6.9-10-19.5 19.9-4.1L78.5 67 77 65.6l-.4-.3-1.4-1.3-5.8-5.3v7.8z"/>
  </g>
</svg>
