<?xml version="1.0" encoding="UTF-8" standalone="no"?><!DOCTYPE svg PUBLIC "-//W3C//DTD SVG 1.1//EN" "http://www.w3.org/Graphics/SVG/1.1/DTD/svg11.dtd"><svg width="100%" height="100%" viewBox="0 0 36 62" version="1.1" xmlns="http://www.w3.org/2000/svg" xmlns:xlink="http://www.w3.org/1999/xlink" xml:space="preserve" xmlns:serif="http://www.serif.com/" style="fill-rule:evenodd;clip-rule:evenodd;stroke-linecap:round;stroke-miterlimit:10;"><g><circle cx="11.266" cy="26.033" r="6.657" style="fill:#9d5b8a;"/><circle cx="22.532" cy="26.033" r="6.657" style="fill:#9d5b8a;"/><circle cx="6.657" cy="36.687" r="6.657" style="fill:#9d5b8a;"/><circle cx="17.411" cy="36.274" r="6.657" style="fill:#9d5b8a;"/><circle cx="29.189" cy="35.506" r="6.657" style="fill:#9d5b8a;"/><circle cx="23.556" cy="44.98" r="6.657" style="fill:#9d5b8a;"/><circle cx="12.29" cy="46.722" r="6.657" style="fill:#9d5b8a;"/><circle cx="18.947" cy="54.965" r="6.657" style="fill:#9d5b8a;"/><path d="M16.028,21.238c0,0 -3.22,-3.932 -0.192,-10.945" style="fill:none;stroke:#8b371c;stroke-width:2.05px;"/><path d="M15.045,19.946c-0.043,-1.168 0.511,-2.374 1.729,-3.442c2.541,-2.227 4.949,-2.444 8.139,-1.92c0.001,0 4.099,0.673 5.612,-2.799c-0.94,2.158 -1.847,4.277 -3.022,6.329c-1.911,3.336 -5.776,8.21 -10.084,5.418c-1.501,-0.972 -2.325,-2.254 -2.374,-3.586Z" style="fill:#80b900;fill-rule:nonzero;stroke:#80b900;stroke-width:0.75px;stroke-linejoin:round;"/></g></svg>