<?xml version="1.0" encoding="utf-8"?>
<!-- Generator: Adobe Illustrator 20.1.0, SVG Export Plug-In . SVG Version: 6.00 Build 0)  -->
<svg version="1.1" baseProfile="tiny" id="Layer_1" xmlns="http://www.w3.org/2000/svg" xmlns:xlink="http://www.w3.org/1999/xlink"
	 x="0px" y="0px" viewBox="0 0 70 70" overflow="scroll" xml:space="preserve">
<circle fill="#48418E" cx="35" cy="35" r="35"/>
<path fill="#FFFFFF" d="M52.3,48.1c0,1.5,0.9,2.9,2.2,3.5v0.5c-0.4,0-0.7,0.1-1.1,0.1c-2.3,0-4.4-1-5.8-2.5
	c-0.9,0.2-1.8,0.4-2.8,0.4c-5.4,0-9.7-3.9-9.7-8.6s4.4-8.6,9.7-8.6s9.7,3.9,9.7,8.6c0,1.9-0.7,3.6-1.8,5
	C52.4,47,52.3,47.6,52.3,48.1L52.3,48.1z M32.8,17.7c9.4,0,17,6.1,17.3,13.7c-1.7-0.7-3.5-1.1-5.4-1.1c-3.2,0-6.3,1.1-8.6,3.2
	c-2.4,2.1-3.7,5-3.7,8c0,1.5,0.3,3,0.9,4.3c-0.2,0-0.4,0-0.5,0c-0.9,0-1.8-0.1-2.7-0.2c-3.7,3.7-8.1,4.4-12.4,4.5v-0.9
	C20,48.1,22,46,22,43.7c0-0.3,0-0.7-0.1-1c-3.9-2.6-6.4-6.5-6.4-10.9C15.6,24,23.3,17.7,32.8,17.7z"/>
</svg>
